<svg xmlns="http://www.w3.org/2000/svg" width="128" height="128" viewBox="0 0 128 128">
  <defs>
    <linearGradient id="bg" x1="0%" y1="0%" x2="100%" y2="100%">
      <stop offset="0%" stop-color="#4a2c6e"/>
      <stop offset="50%" stop-color="#1e3a5f"/>
      <stop offset="100%" stop-color="#0f172a"/>
    </linearGradient>
    <linearGradient id="rGrad" x1="32" y1="22" x2="32" y2="106" gradientUnits="userSpaceOnUse">
      <stop offset="0%" stop-color="#f9a8d4"/>
      <stop offset="50%" stop-color="#f472b6"/>
      <stop offset="100%" stop-color="#ec4899"/>
    </linearGradient>
    <linearGradient id="legGrad" x1="62" y1="70" x2="94" y2="104" gradientUnits="userSpaceOnUse">
      <stop offset="0%" stop-color="#c084fc"/>
      <stop offset="100%" stop-color="#f472b6"/>
    </linearGradient>
    <linearGradient id="border" x1="0%" y1="0%" x2="100%" y2="0%">
      <stop offset="0%" stop-color="#c084fc"/>
      <stop offset="100%" stop-color="#f472b6"/>
    </linearGradient>
  </defs>
  <rect x="4" y="4" width="120" height="120" rx="28" ry="28" fill="url(#bg)"/>
  <rect x="4" y="4" width="120" height="120" rx="28" ry="28" fill="none" stroke="url(#border)" stroke-width="1.5" opacity="0.4"/>
  <circle cx="97" cy="27" r="3" fill="#c084fc" opacity="0.35"/>
  <circle cx="104" cy="34" r="2" fill="#f472b6" opacity="0.25"/>
  <circle cx="93" cy="36" r="1.5" fill="#a78bfa" opacity="0.2"/>
  <path d="M42 30 C46 50 48 72 44 90 Q42 100 38 106" stroke="url(#rGrad)" stroke-width="9" stroke-linecap="round" fill="none"/>
  <path d="M42 30 L62 30 C80 30 86 38 86 50 C86 62 80 70 62 70 L42 70" stroke="url(#rGrad)" stroke-width="9" stroke-linecap="round" stroke-linejoin="round" fill="none"/>
  <path d="M62 70 C72 72 82 84 94 104" stroke="url(#legGrad)" stroke-width="8" stroke-linecap="round" fill="none"/>
  <circle cx="96" cy="106" r="3" fill="#f472b6" opacity="0.5"/>
</svg>
